<svg width="20" height="20" viewBox="0 0 20 20" fill="none" xmlns="http://www.w3.org/2000/svg">
<path d="M18.2501 13.6665H14.5834C14.0772 13.6665 13.6667 14.0769 13.6667 14.5832V18.2498C13.6667 18.7561 14.0772 19.1665 14.5834 19.1665H18.2501C18.7563 19.1665 19.1667 18.7561 19.1667 18.2498V14.5832C19.1667 14.0769 18.7563 13.6665 18.2501 13.6665Z" stroke="black" stroke-width="1.2" stroke-linecap="round" stroke-linejoin="round"/>
<path d="M5.41671 13.6665H1.75004C1.24378 13.6665 0.833374 14.0769 0.833374 14.5832V18.2498C0.833374 18.7561 1.24378 19.1665 1.75004 19.1665H5.41671C5.92297 19.1665 6.33337 18.7561 6.33337 18.2498V14.5832C6.33337 14.0769 5.92297 13.6665 5.41671 13.6665Z" stroke="black" stroke-width="1.2" stroke-linecap="round" stroke-linejoin="round"/>
<path d="M11.8333 0.833252H8.16667C7.66041 0.833252 7.25 1.24366 7.25 1.74992V5.41659C7.25 5.92285 7.66041 6.33325 8.16667 6.33325H11.8333C12.3396 6.33325 12.75 5.92285 12.75 5.41659V1.74992C12.75 1.24366 12.3396 0.833252 11.8333 0.833252Z" stroke="black" stroke-width="1.2" stroke-linecap="round" stroke-linejoin="round"/>
<path d="M3.58337 13.6666V10.9166C3.58337 10.6735 3.67995 10.4403 3.85186 10.2684C4.02377 10.0965 4.25693 9.99992 4.50004 9.99992H15.5C15.7432 9.99992 15.9763 10.0965 16.1482 10.2684C16.3201 10.4403 16.4167 10.6735 16.4167 10.9166V13.6666M10 9.99992V6.33325" stroke="black" stroke-width="1.2" stroke-linecap="round" stroke-linejoin="round"/>
</svg>
