<svg width="18" height="18" viewBox="0 0 18 18" fill="none" xmlns="http://www.w3.org/2000/svg">
<path d="M6.93746 6.00005H1.31245C0.58873 6.00005 0 5.41132 0 4.68746V1.31245C0 0.58873 0.58873 0 1.31245 0H6.93746C7.66132 0 8.25005 0.58873 8.25005 1.31245V4.68746C8.25005 5.41132 7.66132 6.00005 6.93746 6.00005ZM1.31245 1.125C1.20905 1.125 1.125 1.20905 1.125 1.31245V4.68746C1.125 4.791 1.20905 4.87505 1.31245 4.87505H6.93746C7.041 4.87505 7.12505 4.791 7.12505 4.68746V1.31245C7.12505 1.20905 7.041 1.125 6.93746 1.125H1.31245Z" fill="#222222"/>
<path d="M6.93746 17.5H1.31245C0.58873 17.5 0 16.9113 0 16.1876V8.31259C0 7.58873 0.58873 7 1.31245 7H6.93746C7.66132 7 8.25005 7.58873 8.25005 8.31259V16.1876C8.25005 16.9113 7.66132 17.5 6.93746 17.5ZM1.31245 8.125C1.20905 8.125 1.125 8.20905 1.125 8.31259V16.1876C1.125 16.291 1.20905 16.375 1.31245 16.375H6.93746C7.041 16.375 7.12505 16.291 7.12505 16.1876V8.31259C7.12505 8.20905 7.041 8.125 6.93746 8.125H1.31245Z" fill="#222222"/>
<path d="M16.6876 18H11.0626C10.3387 18 9.75 17.4113 9.75 16.6876V13.3126C9.75 12.5887 10.3387 12 11.0626 12H16.6876C17.4113 12 18 12.5887 18 13.3126V16.6876C18 17.4113 17.4113 18 16.6876 18ZM11.0626 13.125C10.959 13.125 10.875 13.209 10.875 13.3126V16.6876C10.875 16.791 10.959 16.875 11.0626 16.875H16.6876C16.791 16.875 16.875 16.791 16.875 16.6876V13.3126C16.875 13.209 16.791 13.125 16.6876 13.125H11.0626Z" fill="#222222"/>
<path d="M16.6876 10.5H11.0626C10.3387 10.5 9.75 9.91132 9.75 9.18746V1.31245C9.75 0.58873 10.3387 0 11.0626 0H16.6876C17.4113 0 18 0.58873 18 1.31245V9.18746C18 9.91132 17.4113 10.5 16.6876 10.5ZM11.0626 1.125C10.959 1.125 10.875 1.20905 10.875 1.31245V9.18746C10.875 9.291 10.959 9.37505 11.0626 9.37505H16.6876C16.791 9.37505 16.875 9.291 16.875 9.18746V1.31245C16.875 1.20905 16.791 1.125 16.6876 1.125H11.0626Z" fill="#222222"/>
</svg>
