<svg width="34" height="34" viewBox="0 0 34 34" fill="none" xmlns="http://www.w3.org/2000/svg">
<path d="M16.9987 0.332031C7.7987 0.332031 0.332031 7.7987 0.332031 16.9987C0.332031 26.1987 7.7987 33.6654 16.9987 33.6654C26.1987 33.6654 33.6654 26.1987 33.6654 16.9987C33.6654 7.7987 26.1987 0.332031 16.9987 0.332031ZM16.9987 6.9987C20.2154 6.9987 22.832 9.61536 22.832 12.832C22.832 16.0487 20.2154 18.6654 16.9987 18.6654C13.782 18.6654 11.1654 16.0487 11.1654 12.832C11.1654 9.61536 13.782 6.9987 16.9987 6.9987ZM16.9987 30.332C13.6154 30.332 9.61537 28.9654 6.76536 25.532C9.68471 23.2416 13.2881 21.9967 16.9987 21.9967C20.7093 21.9967 24.3127 23.2416 27.232 25.532C24.382 28.9654 20.382 30.332 16.9987 30.332Z" fill="#093545"/>
</svg>
