<svg width="11" height="13" viewBox="0 0 11 13" fill="none" xmlns="http://www.w3.org/2000/svg">
<path d="M3.76053 0.718753H8.28928C8.34386 0.718563 8.39763 0.731991 8.44571 0.75782C8.49379 0.783649 8.53467 0.821065 8.56464 0.866677C8.59462 0.91229 8.61274 0.96466 8.61737 1.01904C8.622 1.07343 8.61299 1.12811 8.59116 1.17813L6.81928 5.31375H9.80616C9.83117 5.31401 9.85558 5.32141 9.87653 5.33507C9.89748 5.34874 9.91408 5.36811 9.92439 5.39089C9.9347 5.41368 9.93829 5.43894 9.93473 5.46369C9.93116 5.48845 9.9206 5.51167 9.90428 5.53063L3.81303 12.225C3.79641 12.2499 3.77143 12.2679 3.74262 12.2759C3.71382 12.2839 3.6831 12.2814 3.65603 12.2687C3.62897 12.256 3.60735 12.234 3.5951 12.2067C3.58286 12.1794 3.58079 12.1487 3.58928 12.12L4.19366 7.2825H1.39741C1.3431 7.28324 1.28946 7.27051 1.24127 7.24545C1.19309 7.22039 1.15186 7.18378 1.12128 7.1389C1.0907 7.09402 1.07171 7.04226 1.06602 6.98824C1.06033 6.93423 1.0681 6.87965 1.08866 6.82938L3.45116 0.921878C3.4762 0.860707 3.51914 0.808526 3.57434 0.772169C3.62954 0.735813 3.69444 0.717602 3.76053 0.718753Z" stroke="#33363F" stroke-width="1.2" stroke-linecap="round" stroke-linejoin="round"/>
</svg>
