<svg width="13" height="15" viewBox="0 0 13 15" fill="none" xmlns="http://www.w3.org/2000/svg">
<path d="M4.29242 5.24685L4.29117 5.24748L4.28929 5.24873L4.29242 5.24685ZM10.5137 5.12998C10.4702 5.08803 10.4219 5.05132 10.3699 5.0206C10.2963 4.97724 10.2145 4.94944 10.1297 4.93893C10.0449 4.92842 9.95878 4.93542 9.87678 4.9595C9.79477 4.98357 9.71857 5.02421 9.65289 5.07891C9.58721 5.1336 9.53344 5.20118 9.49492 5.27748C9.27967 5.7018 8.98274 6.07944 8.62117 6.38873C8.67661 6.07719 8.70463 5.7614 8.70492 5.44498C8.70611 4.48256 8.45225 3.53702 7.96919 2.70462C7.48613 1.87221 6.79112 1.18268 5.95492 0.706225C5.86277 0.653868 5.75882 0.625804 5.65285 0.62467C5.54687 0.623535 5.44235 0.649369 5.3491 0.699742C5.25585 0.750115 5.17695 0.823373 5.1198 0.912629C5.06265 1.00188 5.02914 1.10421 5.02242 1.20998C4.98743 1.80254 4.83251 2.38183 4.56704 2.91276C4.30158 3.44368 3.9311 3.91519 3.47804 4.29873L3.33429 4.4156C2.8603 4.7345 2.44076 5.12766 2.09179 5.57998C1.54947 6.26317 1.17379 7.06334 0.994555 7.91701C0.815322 8.77067 0.837465 9.65436 1.05923 10.498C1.28099 11.3416 1.69627 12.122 2.27214 12.7771C2.848 13.4323 3.5686 13.9443 4.37679 14.2725C4.47168 14.3111 4.57461 14.3258 4.67651 14.3153C4.77842 14.3048 4.87618 14.2694 4.96119 14.2122C5.0462 14.1551 5.11586 14.0779 5.16402 13.9875C5.21219 13.897 5.2374 13.7962 5.23742 13.6937C5.2369 13.6275 5.22636 13.5618 5.20617 13.4987C5.06633 12.9731 5.02606 12.426 5.08742 11.8856C5.67897 13.001 6.62839 13.885 7.78304 14.3956C7.92392 14.4586 8.08316 14.467 8.22992 14.4194C9.14209 14.1249 9.96382 13.6021 10.6171 12.9006C11.2703 12.1991 11.7333 11.3423 11.9621 10.4115C12.191 9.48068 12.178 8.50682 11.9245 7.58243C11.671 6.65804 11.1853 5.81382 10.5137 5.12998ZM8.07304 13.1494C7.52823 12.8733 7.04761 12.4857 6.66244 12.0116C6.27727 11.5376 5.99617 10.9879 5.83742 10.3981C5.78888 10.1995 5.75133 9.99835 5.72492 9.7956C5.70713 9.66649 5.64944 9.54618 5.5599 9.45148C5.47036 9.35679 5.35345 9.29245 5.22554 9.26748C5.18622 9.25984 5.14623 9.25607 5.10617 9.25623C4.99636 9.25612 4.88845 9.28495 4.79332 9.33981C4.6982 9.39467 4.6192 9.47362 4.56429 9.56873C4.04582 10.4633 3.78515 11.4839 3.81117 12.5175C3.35502 12.1629 2.97378 11.7213 2.68955 11.2183C2.40533 10.7153 2.22377 10.1609 2.1554 9.58725C2.08703 9.01357 2.13322 8.43202 2.29127 7.87631C2.44933 7.32061 2.71612 6.80181 3.07617 6.34998C3.34956 5.99487 3.67935 5.68704 4.05242 5.43873C4.06874 5.42825 4.0844 5.41677 4.09929 5.40435C4.09929 5.40435 4.28429 5.25123 4.29054 5.2481C5.18129 4.495 5.8149 3.48277 6.10304 2.35248C6.78394 2.98208 7.23789 3.81889 7.39442 4.73295C7.55095 5.64702 7.40128 6.58719 6.96867 7.40748C6.91142 7.51696 6.8879 7.64096 6.90109 7.76381C6.91428 7.88665 6.96358 8.00283 7.04277 8.09767C7.12196 8.19251 7.22748 8.26175 7.346 8.29665C7.46452 8.33154 7.59073 8.33052 7.70867 8.29373C8.666 7.99349 9.50838 7.40718 10.1224 6.61373C10.4916 7.15887 10.733 7.78031 10.8286 8.43173C10.9242 9.08315 10.8715 9.74774 10.6745 10.376C10.4775 11.0042 10.1413 11.5799 9.69085 12.0601C9.24041 12.5403 8.68741 12.9126 8.07304 13.1494Z" fill="#33363F"/>
</svg>
