<svg width="20" height="20" viewBox="0 0 20 20" fill="none" xmlns="http://www.w3.org/2000/svg">
<path d="M10 19C14.9706 19 19 14.9706 19 10C19 5.02944 14.9706 1 10 1C5.02944 1 1 5.02944 1 10C1 14.9706 5.02944 19 10 19Z" stroke="#8B6400" stroke-linecap="round" stroke-linejoin="round"/>
<path d="M10 13C12.0711 13 13.75 11.3211 13.75 9.25C13.75 7.17893 12.0711 5.5 10 5.5C7.92893 5.5 6.25 7.17893 6.25 9.25C6.25 11.3211 7.92893 13 10 13Z" stroke="#8B6400" stroke-linecap="round" stroke-linejoin="round"/>
<path d="M3.98145 16.6909C4.54574 15.5794 5.40678 14.6459 6.46914 13.9938C7.5315 13.3418 8.75367 12.9966 10.0002 12.9966C11.2467 12.9966 12.4689 13.3418 13.5312 13.9938C14.5936 14.6459 15.4547 15.5794 16.0189 16.6909" stroke="#8B6400" stroke-linecap="round" stroke-linejoin="round"/>
</svg>
