<svg width="20" height="20" viewBox="0 0 20 20" fill="none" xmlns="http://www.w3.org/2000/svg">
<path d="M6.9129 18.2456C6.96461 18.3952 7.06231 18.5245 7.19203 18.6152C7.32174 18.7059 7.47682 18.7532 7.63506 18.7504C7.7933 18.7476 7.9466 18.6948 8.07301 18.5996C8.19943 18.5044 8.29247 18.3716 8.33884 18.2203L10.5467 11.0437C10.5826 10.9266 10.6467 10.8201 10.7333 10.7335C10.8199 10.6469 10.9264 10.5828 11.0435 10.5468L18.2201 8.3437C18.3714 8.29733 18.5042 8.20428 18.5994 8.07787C18.6946 7.95145 18.7474 7.79816 18.7503 7.63991C18.7531 7.48167 18.7057 7.32659 18.6151 7.19688C18.5244 7.06717 18.395 6.96947 18.2454 6.91776L1.7454 0.797757C1.61304 0.752739 1.47073 0.745615 1.33453 0.777187C1.19834 0.80876 1.07368 0.877774 0.974624 0.976438C0.875569 1.0751 0.806065 1.19949 0.773955 1.33556C0.741845 1.47163 0.748408 1.61397 0.792904 1.74651L6.9129 18.2456Z" stroke="#004585" stroke-linecap="round" stroke-linejoin="round"/>
</svg>
